<svg height="512pt" viewBox="0 0 512 512" width="512pt" xmlns="http://www.w3.org/2000/svg"><path d="m432 0h-352c-44.160156.0546875-79.9453125 35.839844-80 80v352c.0546875 44.160156 35.839844 79.945312 80 80h352c44.160156-.054688 79.945312-35.839844 80-80v-352c-.054688-44.160156-35.839844-79.9453125-80-80zm48 432c0 26.507812-21.492188 48-48 48h-352c-7.128906-.027344-14.15625-1.667969-20.558594-4.800781l132.558594-132.574219v89.375h32v-128c0-8.835938-7.164062-16-16-16h-128v32h89.375l-132.574219 132.558594c-3.132812-6.402344-4.773437-13.429688-4.800781-20.558594v-352c0-26.507812 21.492188-48 48-48h352c7.128906.027344 14.15625 1.667969 20.558594 4.800781l-132.558594 132.574219v-89.375h-32v128c0 8.835938 7.164062 16 16 16h128v-32h-89.375l132.574219-132.558594c3.132812 6.402344 4.773437 13.429688 4.800781 20.558594zm0 0"/></svg>